<?xml version="1.0" encoding="UTF-8"?>
<svg xmlns="http://www.w3.org/2000/svg" xmlns:xlink="http://www.w3.org/1999/xlink" viewBox="0 0 24 24" version="1.1" fill="#000000"><g id="surface1" fill="#000000"><path style=" " d="M 5.65625 2 L 7 7 L 7 10 L 8 10 L 8 7 L 9.4375 2 L 8.375 2 L 7.59375 5.125 L 7.5 5.125 L 6.78125 2 Z M 11.53125 4 C 11.0625 4 10.683594 4.144531 10.40625 4.40625 C 10.128906 4.667969 10 4.996094 10 5.4375 L 10 8.40625 C 10 8.890625 10.136719 9.277344 10.40625 9.5625 C 10.679688 9.847656 11.046875 10 11.5 10 C 11.96875 10 12.324219 9.871094 12.59375 9.59375 C 12.859375 9.3125 13 8.925781 13 8.4375 L 13 5.46875 C 13 5.035156 12.867188 4.679688 12.59375 4.40625 C 12.320313 4.128906 11.960938 4 11.53125 4 Z M 14 4 L 14 8.90625 C 14 9.253906 14.0625 9.578125 14.1875 9.75 C 14.308594 9.921875 14.476563 10 14.71875 10 C 14.914063 10 15.136719 9.933594 15.34375 9.8125 C 15.554688 9.691406 15.746094 9.515625 15.9375 9.28125 L 15.9375 10 L 17 10 L 17 4 L 16 4 L 16 8.40625 C 15.902344 8.53125 15.679688 8.640625 15.5625 8.71875 C 15.445313 8.800781 15.359375 8.84375 15.28125 8.84375 C 15.183594 8.84375 15.105469 8.808594 15.0625 8.75 C 15.015625 8.6875 15 8.574219 15 8.4375 L 15 4 Z M 11.5 5 C 11.636719 5 11.792969 5.019531 11.875 5.09375 C 11.960938 5.171875 12 5.285156 12 5.40625 L 12 8.53125 C 12 8.683594 11.957031 8.789063 11.875 8.875 C 11.792969 8.964844 11.640625 9 11.5 9 C 11.363281 9 11.195313 8.960938 11.125 8.875 C 11.050781 8.789063 11 8.683594 11 8.53125 C 11 8.523438 11 8.507813 11 8.5 L 11 5.5 C 11 5.492188 11 5.476563 11 5.46875 L 11 5.40625 C 11 5.285156 11.046875 5.171875 11.125 5.09375 C 11.203125 5.019531 11.375 5 11.5 5 Z M 5 11 C 3.898438 11 3 11.898438 3 13 L 3 20 C 3 21.101563 3.898438 22 5 22 L 19 22 C 20.101563 22 21 21.101563 21 20 L 21 13 C 21 11.898438 20.101563 11 19 11 Z M 4.90625 12 L 8.0625 12 C 8.132813 12 8.1875 12.054688 8.1875 12.125 L 8.1875 13.03125 C 8.1875 13.089844 8.132813 13.15625 8.0625 13.15625 L 7.125 13.15625 L 7.125 19.90625 C 7.125 19.964844 7.058594 20.03125 7 20.03125 L 6 20.03125 C 5.941406 20.03125 5.875 19.964844 5.875 19.90625 L 5.875 13.15625 L 4.90625 13.15625 C 4.835938 13.15625 4.78125 13.089844 4.78125 13.03125 L 4.78125 12.125 C 4.78125 12.054688 4.835938 12 4.90625 12 Z M 12 12 L 13 12 C 13.058594 12 13.125 12.054688 13.125 12.125 L 13.125 14.40625 C 13.214844 14.328125 13.285156 14.277344 13.375 14.21875 C 13.546875 14.128906 13.820313 14 14 14 C 14.359375 14 14.652344 14.136719 14.84375 14.40625 C 15.035156 14.667969 15 15.28125 15 15.75 L 15 19 C 15 19.804688 14.460938 20.09375 14 20.09375 C 13.789063 20.09375 13.554688 20.027344 13.375 19.9375 C 13.285156 19.898438 13.214844 19.820313 13.125 19.75 L 13.125 19.875 C 13.125 19.933594 13.058594 20 13 20 L 12 20 C 11.941406 20 11.875 19.933594 11.875 19.875 L 11.875 12.125 C 11.875 12.054688 11.941406 12 12 12 Z M 8 14 L 9 14 C 9.058594 14 9.125 14.066406 9.125 14.125 L 9.125 18.59375 C 9.125 18.789063 9.191406 18.875 9.28125 18.875 C 9.410156 18.875 9.796875 18.621094 9.875 18.53125 L 9.875 14.125 C 9.875 14.066406 9.941406 14 10 14 L 11 14 C 11.070313 14 11.125 14.066406 11.125 14.125 L 11.125 19.875 C 11.125 19.933594 11.070313 20 11 20 L 10 20 C 9.929688 20 9.875 19.933594 9.875 19.875 L 9.875 19.5625 C 9.734375 19.691406 9.074219 20.09375 8.71875 20.09375 C 8.4375 20.09375 8.234375 19.980469 8.09375 19.78125 C 7.953125 19.601563 7.875 19.351563 7.875 19 L 7.875 14.125 C 7.875 14.066406 7.941406 14 8 14 Z M 17.4375 14 C 17.949219 14 18.292969 14.160156 18.5625 14.46875 C 18.832031 14.769531 19 15.199219 19 15.75 L 19 17 C 19 17.058594 18.964844 17.125 18.90625 17.125 L 17 17.125 L 17 18.3125 C 17 19.191406 18 19.167969 18 18.375 L 18 18 C 18 17.941406 18.011719 17.878906 18.09375 17.875 L 18.875 17.84375 C 18.945313 17.84375 19 17.910156 19 17.96875 L 19 18.375 C 19 19.746094 17.925781 20.03125 17.375 20.03125 C 16.886719 20.03125 15.9375 19.542969 15.9375 18.34375 L 15.9375 15.75 C 15.9375 14.289063 16.949219 14 17.4375 14 Z M 17.53125 15 C 17.421875 14.992188 17.296875 15.019531 17.1875 15.125 C 17.15625 15.175781 17.125 15.304688 17.125 15.5625 L 17.125 16 L 17.90625 16 L 17.90625 15.5625 C 17.90625 15.304688 17.851563 15.175781 17.8125 15.125 C 17.738281 15.050781 17.640625 15.007813 17.53125 15 Z M 13.5625 15.125 C 13.472656 15.113281 13.367188 15.109375 13.28125 15.15625 C 13.230469 15.175781 13.175781 15.230469 13.125 15.28125 L 13.125 18.8125 C 13.195313 18.882813 13.261719 18.90625 13.3125 18.9375 C 13.371094 18.96875 13.429688 19 13.5 19 C 13.628906 19 13.84375 18.988281 13.84375 18.625 L 13.84375 15.5625 C 13.84375 15.402344 13.808594 15.289063 13.75 15.21875 C 13.714844 15.164063 13.652344 15.136719 13.5625 15.125 Z " fill="#000000"/></g></svg>
