<svg id="Layer_1" data-name="Layer 1" xmlns="http://www.w3.org/2000/svg" xmlns:xlink="http://www.w3.org/1999/xlink" viewBox="0 0 378.55 112.86"><defs><style>.cls-1{fill:#9532ad;}.cls-2{fill:url(#linear-gradient);}</style><linearGradient id="linear-gradient" x1="1099.45" y1="1579.18" x2="1381.06" y2="1579.18" gradientUnits="userSpaceOnUse"><stop offset="0" stop-color="#9532ad"/><stop offset="1" stop-color="#3295c7"/></linearGradient></defs><title>ubicy-logo-color</title><path class="cls-1" d="M1076.39,1535.21l0.94-9.06h-10.6l-0.47,4.58-19.23-9.1-43.34,18.06-1.17,11.29,5.53-2.24-2.19,21.17c0,0.09,0,.18,0,0.28a33.53,33.53,0,0,0,1.63,14.75c7,19.76,22.13,40.63,26.61,46.55a1.8,1.8,0,0,0,1.45.7,2.24,2.24,0,0,0,1.59-.7c5.71-5.92,25.18-26.79,36.27-46.55a38,38,0,0,0,4.69-14.75c0-.09,0-0.18,0-0.28l2.19-21.17,5.07,2.24,1.17-11.29Zm-13.38,35c-1.21,11.64-11.62,21.07-23.26,21.07s-20.09-9.43-18.89-21.07,11.62-21.07,23.26-21.07S1064.22,1558.55,1063,1570.19Z" transform="translate(-1002.51 -1521.63)"/><path class="cls-2" d="M1203,1549.08a24.09,24.09,0,0,0-17.29,6.73l3-28.5h-18l-8.68,83.51h18l0.71-6.85c4,5.65,10.1,8.53,18.39,8.53q13.15,0,21.33-9a35.68,35.68,0,0,0,9.15-21.5C1231.48,1565.42,1220.81,1549,1203,1549.08Zm8.52,31.71c-0.91,9.13-7.23,14.65-15.4,14.65s-13.74-5.64-12.94-14.65,7.48-14.65,15.76-14.65S1212.47,1571.66,1211.56,1580.79Zm-71.88,3c-1,7.81-5.89,11.65-12.25,11.65s-10.23-3.6-9.43-10.93l3.47-33.53h-18l-3.81,36.65c-0.77,7.69.75,13.81,4.79,18.26s9.36,6.61,15.85,6.61c7.33,0,13-2.4,17.13-7.33l-0.56,5.64h18l6.23-59.83h-18Zm109.11-59.93a12.25,12.25,0,0,0-11.71,10.81,9.64,9.64,0,0,0,9.78,10.81,12.08,12.08,0,0,0,11.83-10.81A9.86,9.86,0,0,0,1248.79,1523.86Zm-17.9,87h18l6.23-59.83h-18ZM1381.06,1551h-20l-16.13,39.17L1334.14,1551h-18.57l18.19,59.83h0a14.39,14.39,0,0,1-4.47,4.74c-2.19,1.32-5.38,2-9.7,2l-1.67,16.81c8.2,0.48,15.29-1.2,21.14-5,5.51-3.55,10.43-9.77,14.75-18.55h0Zm-91.91,15.15c5.61,0,9.88,2.61,11.71,7.21l15.83-8.65c-4.64-9.49-14.21-15.61-26.7-15.61a33,33,0,0,0-23,8.65,32,32,0,0,0-10.56,21.86q-1.17,13.87,7.45,23.42c5.74,6.37,13.41,9.49,22.9,9.49,11.53,0,21.85-5.16,27.25-15.25l-14.64-8.91a14.7,14.7,0,0,1-13,7.11c-8.29,0-13.74-5.64-12.94-14.65S1280.87,1566.14,1289.16,1566.14Z" transform="translate(-1002.51 -1521.63)"/></svg>