<?xml version="1.0" encoding="UTF-8"?>
<svg width="229px" height="66px" viewBox="0 0 229 66" version="1.1" xmlns="http://www.w3.org/2000/svg" xmlns:xlink="http://www.w3.org/1999/xlink">
    <!-- Generator: Sketch 49.1 (51147) - http://www.bohemiancoding.com/sketch -->
    <title>Group</title>
    <desc>Created with Sketch.</desc>
    <defs></defs>
    <g id="Page-1" stroke="none" stroke-width="1" fill="none" fill-rule="evenodd">
        <g id="Group">
            <rect id="Rectangle" fill="#33CFCF" x="0" y="22" width="220" height="44"></rect>
            <path d="M21.977,25.949 L21.977,35.212 L39.382,35.212 L39.382,43 L13.835,43 L13.835,1.7 L39.087,1.7 L39.087,9.488 L21.977,9.488 L21.977,18.279 L37.612,18.279 L37.612,25.949 L21.977,25.949 Z M51.824059,1.7 L51.824059,35.212 L67.577059,35.212 L67.577059,43 L43.682059,43 L43.682059,1.7 L51.824059,1.7 Z M109.040177,21.583 C112.639177,23.648 114.468177,26.834 114.468177,31.023 C114.468177,34.504 113.229177,37.395 110.751177,39.637 C108.273177,41.879 105.205177,43 101.606177,43 L84.0831771,43 L84.0831771,1.7 L100.367177,1.7 C103.907177,1.7 106.857177,2.821 109.276177,5.004 C111.695177,7.187 112.934177,9.96 112.934177,13.323 C112.934177,16.745 111.636177,19.518 109.040177,21.583 Z M100.367177,9.311 L92.2251771,9.311 L92.2251771,18.397 L100.367177,18.397 C102.904177,18.397 104.792177,16.45 104.792177,13.854 C104.792177,11.258 102.963177,9.311 100.367177,9.311 Z M92.2251771,35.389 L101.606177,35.389 C104.379177,35.389 106.385177,33.324 106.385177,30.492 C106.385177,27.719 104.379177,25.654 101.606177,25.654 L92.2251771,25.654 L92.2251771,35.389 Z M126.497236,1.7 L126.497236,35.212 L142.250236,35.212 L142.250236,43 L118.355236,43 L118.355236,1.7 L126.497236,1.7 Z M177.643295,37.631 C173.454295,41.761 168.380295,43.826 162.421295,43.826 C156.462295,43.826 151.388295,41.761 147.199295,37.631 C143.069295,33.442 141.004295,28.368 141.004295,22.35 C141.004295,16.332 143.069295,11.258 147.199295,7.128 C151.388295,2.939 156.462295,0.874 162.421295,0.874 C168.380295,0.874 173.454295,2.939 177.643295,7.128 C181.832295,11.258 183.897295,16.332 183.897295,22.35 C183.897295,28.368 181.832295,33.442 177.643295,37.631 Z M152.922295,32.085 C155.459295,34.622 158.645295,35.861 162.421295,35.861 C166.197295,35.861 169.383295,34.622 171.920295,32.085 C174.457295,29.548 175.755295,26.303 175.755295,22.35 C175.755295,18.397 174.457295,15.152 171.920295,12.615 C169.383295,10.078 166.197295,8.78 162.421295,8.78 C158.645295,8.78 155.459295,10.078 152.922295,12.615 C150.385295,15.152 149.087295,18.397 149.087295,22.35 C149.087295,26.303 150.385295,29.548 152.922295,32.085 Z M208.021354,20.816 L228.730354,20.816 L228.730354,24.002 C228.730354,29.902 226.842354,34.681 223.066354,38.339 C219.290354,41.997 214.393354,43.826 208.434354,43.826 C202.062354,43.826 196.752354,41.761 192.563354,37.631 C188.374354,33.442 186.309354,28.368 186.309354,22.409 C186.309354,16.391 188.374354,11.317 192.504354,7.128 C196.693354,2.939 201.826354,0.874 207.962354,0.874 C215.691354,0.874 222.417354,4.65 225.957354,10.491 L218.995354,14.503 C217.048354,11.14 212.800354,8.78 207.903354,8.78 C203.950354,8.78 200.705354,10.078 198.168354,12.674 C195.631354,15.211 194.392354,18.456 194.392354,22.409 C194.392354,26.303 195.690354,29.548 198.227354,32.085 C200.823354,34.622 204.245354,35.861 208.493354,35.861 C214.806354,35.861 219.054354,32.911 220.529354,28.014 L208.021354,28.014 L208.021354,20.816 Z" id="EL-BLOG" fill="#000000"></path>
        </g>
    </g>
</svg>